<svg width="102" height="24" viewBox="0 0 102 24" fill="none" xmlns="http://www.w3.org/2000/svg">
<g clip-path="url(#clip0_1_1076)">
<path d="M10.8343 0C13.4996 0 15.5727 0.673597 17.0535 2.04574C18.5342 3.41788 19.2746 5.28898 19.2746 7.65904C19.2746 10.0291 18.5342 11.9501 17.0535 13.2973C15.5727 14.6694 13.4996 15.343 10.8343 15.343H4.66441V23.9751H0V0H10.8343ZM10.0692 11.5759C11.5253 11.5759 12.6359 11.2266 13.4009 10.553C14.166 9.87942 14.5609 8.90644 14.5609 7.68399C14.5609 6.46154 14.166 5.48857 13.4009 4.81497C12.6359 4.14137 11.5253 3.7921 10.0692 3.7921H4.66441V11.6008H10.0939L10.0692 11.5759Z" fill="black"/>
<path d="M32.7496 0C35.4396 0 37.5127 0.673597 39.0182 2.02079C40.5236 3.36798 41.264 5.21414 41.264 7.5343C41.264 9.85447 40.5236 11.7006 39.0182 13.0478C37.5127 14.395 35.4396 15.0686 32.7496 15.0686H25.9627V24H21.2983V0H32.7496ZM32.0832 11.2516C33.5146 11.2516 34.6252 10.9272 35.3903 10.3035C36.1553 9.65489 36.5502 8.73181 36.5502 7.5343C36.5502 6.3368 36.1553 5.41372 35.3903 4.76507C34.6252 4.09148 33.5146 3.76715 32.0832 3.76715H25.9627V11.2516H32.0832ZM30.0595 13.3472H35.2175L41.7576 24H36.3281L30.0349 13.3472H30.0595Z" fill="black"/>
<path d="M48.495 24H43.8306V0H48.495V24Z" fill="black"/>
<path d="M69.596 0H76.3581V24H71.9652V5.98753H71.8418L65.82 24H62.3155L56.3184 5.98753H56.195V24H51.9008V0H58.6877L64.0678 17.0395H64.1912L69.5713 0H69.596Z" fill="black"/>
<path d="M96.9901 24L89.9812 4.06653H89.8824L82.9228 24H77.9623L86.9456 0H93.0414L102.025 24H97.0148H96.9901ZM84.453 14.4449H95.534L97.385 18.0873H82.7254L84.453 14.4449Z" fill="black"/>
</g>
<defs>
<clipPath id="clip0_1_1076">
<rect width="102" height="24" fill="white"/>
</clipPath>
</defs>
</svg>
