<svg width="20" height="20" viewBox="0 0 20 20" fill="none" xmlns="http://www.w3.org/2000/svg">
<path d="M16.25 11.8438V10.625C16.25 9.59375 15.4062 8.75 14.375 8.75H8.33124L7.05624 2.14375C6.88749 1.2625 6.11249 0.625 5.21874 0.625H3.74999C3.56249 0.625 3.38749 0.70625 3.26874 0.85C3.14999 0.99375 3.09999 1.175 3.13749 1.35625L4.98749 11.875L3.76249 18.6375C3.69999 18.975 3.92499 19.3 4.26874 19.3625C4.29999 19.375 4.33749 19.375 4.37499 19.375C4.66874 19.375 4.93749 19.1625 4.98749 18.8625L5.34999 16.875H15.45L15.625 18.8062C15.6562 19.1313 15.925 19.375 16.25 19.375H16.3062C16.65 19.3438 16.9062 19.0375 16.875 18.6938L16.25 11.8438ZM5.21874 1.875C5.51874 1.875 5.77499 2.0875 5.83124 2.38125L7.19999 9.49375C7.25624 9.7875 7.51249 10 7.81249 10H14.375C14.7187 10 15 10.2812 15 10.625V11.25H6.14999L4.49374 1.875H5.21874ZM5.58124 15.625L6.14999 12.5H15.0562L15.3375 15.625H5.58124Z" fill="#613BE8"/>
</svg>
