<svg width="20" height="18" viewBox="0 0 20 18" fill="none" xmlns="http://www.w3.org/2000/svg">
<path d="M18.6362 13.455C18.7038 13.0169 18.75 12.5744 18.75 12.125C18.75 8.02563 15.9131 4.58625 12.1019 3.64062C12.1525 3.45375 12.1875 3.26062 12.1875 3.0625C12.1875 1.85625 11.2063 0.875 10 0.875C8.79375 0.875 7.8125 1.85625 7.8125 3.0625C7.8125 3.26125 7.8475 3.45375 7.89813 3.64062C4.08687 4.58563 1.25 8.02563 1.25 12.125C1.25 12.5744 1.29625 13.0169 1.36375 13.455C0.579375 13.6794 0 14.395 0 15.25C0 16.2837 0.84125 17.125 1.875 17.125H18.125C19.1588 17.125 20 16.2837 20 15.25C20 14.3944 19.4206 13.6794 18.6362 13.455ZM9.0625 3.0625C9.0625 2.54562 9.48312 2.125 10 2.125C10.5169 2.125 10.9375 2.54562 10.9375 3.0625C10.9375 3.18812 10.9094 3.3075 10.8638 3.41875C10.5794 3.39062 10.2913 3.375 10 3.375C9.70875 3.375 9.42062 3.39062 9.13625 3.41875C9.09062 3.3075 9.0625 3.18812 9.0625 3.0625ZM10 4.625C14.1356 4.625 17.5 7.98938 17.5 12.125C17.5 12.5487 17.4525 12.965 17.3831 13.375H2.61687C2.5475 12.965 2.5 12.5487 2.5 12.125C2.5 7.98938 5.86438 4.625 10 4.625ZM18.125 15.875H1.875C1.53 15.875 1.25 15.595 1.25 15.25C1.25 14.905 1.53 14.625 1.875 14.625H18.125C18.47 14.625 18.75 14.905 18.75 15.25C18.75 15.595 18.47 15.875 18.125 15.875Z" fill="#613BE8"/>
</svg>
