<svg width="20" height="20" viewBox="0 0 20 20" fill="none" xmlns="http://www.w3.org/2000/svg">
<path d="M5.41663 18.3333V12.5" stroke="#613BE8" stroke-width="1.5" stroke-miterlimit="10" stroke-linecap="round" stroke-linejoin="round"/>
<path d="M5.41663 4.16666V1.66666" stroke="#613BE8" stroke-width="1.5" stroke-miterlimit="10" stroke-linecap="round" stroke-linejoin="round"/>
<path d="M14.5834 18.3333V15.8333" stroke="#613BE8" stroke-width="1.5" stroke-miterlimit="10" stroke-linecap="round" stroke-linejoin="round"/>
<path d="M14.5834 7.5V1.66666" stroke="#613BE8" stroke-width="1.5" stroke-miterlimit="10" stroke-linecap="round" stroke-linejoin="round"/>
<path d="M7.91663 5.83333V10.8333C7.91663 11.75 7.49996 12.5 6.24996 12.5H4.58329C3.33329 12.5 2.91663 11.75 2.91663 10.8333V5.83333C2.91663 4.91666 3.33329 4.16666 4.58329 4.16666H6.24996C7.49996 4.16666 7.91663 4.91666 7.91663 5.83333Z" fill="#3053CD" stroke="#613BE8" stroke-width="1.5" stroke-miterlimit="10" stroke-linecap="round" stroke-linejoin="round"/>
<path d="M17.0834 9.16667V14.1667C17.0834 15.0833 16.6667 15.8333 15.4167 15.8333H13.75C12.5 15.8333 12.0834 15.0833 12.0834 14.1667V9.16667C12.0834 8.25 12.5 7.5 13.75 7.5H15.4167C16.6667 7.5 17.0834 8.25 17.0834 9.16667Z" fill="#3053CD" stroke="#613BE8" stroke-width="1.5" stroke-miterlimit="10" stroke-linecap="round" stroke-linejoin="round"/>
</svg>
