<svg width="68" height="16" viewBox="0 0 68 16" fill="none" xmlns="http://www.w3.org/2000/svg">
<path d="M7.22284 0C8.99976 0 10.3818 0.449064 11.369 1.36383C12.3562 2.27859 12.8497 3.52599 12.8497 5.10603C12.8497 6.68607 12.3562 7.96674 11.369 8.86487C10.3818 9.77963 8.99976 10.2287 7.22284 10.2287H3.10961V15.9834H0V0H7.22284ZM6.7128 7.71726C7.68352 7.71726 8.4239 7.48441 8.93395 7.03534C9.44399 6.58628 9.70723 5.93763 9.70723 5.12266C9.70723 4.30769 9.44399 3.65904 8.93395 3.20998C8.4239 2.76091 7.68352 2.52807 6.7128 2.52807H3.10961V7.73389H6.72925L6.7128 7.71726Z" fill="black"/>
<path d="M21.833 0C23.6264 0 25.0084 0.449064 26.0121 1.34719C27.0157 2.24532 27.5093 3.47609 27.5093 5.02287C27.5093 6.56965 27.0157 7.80042 26.0121 8.69854C25.0084 9.59667 23.6264 10.0457 21.833 10.0457H17.3085V16H14.1989V0H21.833ZM21.3888 7.50104C22.3431 7.50104 23.0834 7.28482 23.5935 6.86902C24.1035 6.43659 24.3668 5.82121 24.3668 5.02287C24.3668 4.22453 24.1035 3.60915 23.5935 3.17672C23.0834 2.72765 22.3431 2.51143 21.3888 2.51143H17.3085V7.50104H21.3888ZM20.0396 8.89813H23.4783L27.8383 16H24.2187L20.0232 8.89813H20.0396Z" fill="black"/>
<path d="M32.3301 16H29.2205V0H32.3301V16Z" fill="black"/>
<path d="M46.3973 0H50.9055V16H47.9768V3.99168H47.8946L43.88 16H41.5437L37.5457 3.99168H37.4634V16H34.6006V0H39.1251L42.7119 11.3597H42.7942L46.3809 0H46.3973Z" fill="black"/>
<path d="M64.6601 16L59.9874 2.71102H59.9216L55.2819 16H51.9749L57.9637 0H62.0276L68.0165 16H64.6765H64.6601ZM56.302 9.62994H63.6893L64.9233 12.0582H55.1503L56.302 9.62994Z" fill="black"/>
</svg>
