<svg width="21" height="12" viewBox="0 0 21 12" fill="none" xmlns="http://www.w3.org/2000/svg">
<path d="M20.3848 10.5752H19.9267L19.4475 9.73843L19.4453 9.73458C19.0745 9.09772 18.4787 8.06528 18.1374 7.47039C17.8514 6.97949 17.419 6.69798 16.9505 6.69798C16.9502 6.69798 16.9499 6.69798 16.9495 6.69798C16.4812 6.69846 16.0491 6.98029 15.7643 7.47135L15.7604 7.47792C15.7519 7.49298 15.7434 7.5082 15.7346 7.52358L12.2997 1.57375C11.95 0.967651 11.4265 0.619659 10.8637 0.619019C10.8632 0.619019 10.8627 0.619019 10.8621 0.619019C10.2992 0.619019 9.77486 0.96653 9.42286 1.57375C9.42286 1.57375 8.30214 3.51607 7.58228 4.76304C7.47029 4.56934 7.38506 4.42162 7.38281 4.41793C7.03338 3.81151 6.50979 3.46336 5.94662 3.46288C5.9463 3.46288 5.94598 3.46288 5.9455 3.46288C5.38234 3.46288 4.85811 3.81071 4.50707 4.41761L0.953934 10.5752H0.615234C0.275414 10.5752 0 10.8508 0 11.1906C0 11.5303 0.275414 11.8059 0.615234 11.8059H20.3848C20.7246 11.8059 21 11.5303 21 11.1906C21 10.8508 20.7246 10.5752 20.3848 10.5752ZM5.57252 5.03317C5.71751 4.78243 5.86411 4.69334 5.9455 4.69334H5.94566C6.02673 4.6935 6.17269 4.78227 6.31705 5.03268C6.34076 5.07386 6.89992 6.04237 7.03306 6.26956C7.14713 6.46423 7.35782 6.58487 7.58324 6.58487H7.58485C7.81075 6.58423 8.0216 6.46246 8.13519 6.26636C8.554 5.54202 10.4883 2.18947 10.488 2.18979C10.6336 1.93857 10.7805 1.84949 10.8623 1.84949H10.8624C10.9436 1.84965 11.0896 1.93841 11.234 2.18883L15.1838 9.03043C15.2974 9.22701 15.5089 9.3491 15.7359 9.3491H15.7362C15.9634 9.3491 16.1751 9.22669 16.2887 9.02963L16.4293 8.78561C16.5766 8.53039 16.7156 8.2891 16.8302 8.08595C16.8829 7.9959 16.9273 7.95473 16.9508 7.93726C16.9747 7.95473 17.0196 7.99606 17.0721 8.08627C17.4119 8.67859 18.0087 9.71263 18.3809 10.3517L18.5088 10.5752H2.3741L5.57252 5.03317Z" fill="#613BE8"/>
</svg>
